# xmcd
#
# Track frame offsets:
#	225
#	12662
#	26344
#	38444
#	51388
#	63688
#	76513
#	86920
#	98743
#	110273
#	121670
#	136557
#	147205
#	161168
#	171499
#	182629
#	194832
#	206680
#	218043
#	228832
#
# Disc length: 3185 seconds
#
# Revision: 1
# Processed by: cddbd v1.5.2PL0 Copyright (c) Steve Scherf et al.
# Submitted via: audiograbber 1.83.01
#
DISCID=110c6e14
DTITLE=Various Artist - Los Auténticos Bailables Vol 1
DYEAR=1900
DGENRE=Tango
TTITLE0=Tristeza de la Calle Corrientes (Orquesta Miguel Caló, canta  Raúl Bero
TTITLE0=n)
TTITLE1=Trasnochando (Orquesta Miguel Caló, canta  Raúl Beron)
TTITLE2=Cuatro compases (Orquesta Miguel Caló, canta  Raúl Beron)
TTITLE3=Tarareando (Orquesta Miguel Caló, canta  Raúl Beron)
TTITLE4=De pura cepa (Orquesta Juan D'Arienzo instrumental)
TTITLE5=Silueta Porteña (Orquesta Juan D'Arienzo instrumental)
TTITLE6=La puñalada (Orquesta Juan D'Arienzo instrumental)
TTITLE7=Milonga vieja Milonga (Orquesta Juan D'Arienzo instrumental)
TTITLE8=Cascabelito (Orquesta Carlos di Sarli, canta, Roberto Rufino)
TTITLE9=Charlemos (Orquesta Carlos di Sarli, canta, Roberto Rufino)
TTITLE10=Navegante (Orquesta Carlos di Sarli, canta, Roberto Rufino)
TTITLE11=Cosas olvidadas (Orquesta Carlos di Sarli, canta, Roberto Rufino)
TTITLE12=Soñar y nada mas (Orquesta Alfredo de Angelis, canta Carlos Dante)
TTITLE13=Olga (Orquesta Alfredo de Angelis instrumental)
TTITLE14=Mi cariñito (Orquesta Alfredo de Angelis, canta Dúo Dante-Martiel)
TTITLE15=Pobre flor (Orquesta Alfredo de Angelis, canta Dúo Dante-Martiel)
TTITLE16=La Maleva (Orquesta Rodolfo Biagi Instrumental)
TTITLE17=Unión cívica (Orquesta Rodolfo Biagi Instrumental)
TTITLE18=El Rapido (Orquesta Rodolfo Biagi Instrumental)
TTITLE19=Bélgica (Orquesta Rodolfo Biagi Instrumental)
EXTD=
EXTT0=
EXTT1=
EXTT2=
EXTT3=
EXTT4=
EXTT5=
EXTT6=
EXTT7=
EXTT8=
EXTT9=
EXTT10=
EXTT11=
EXTT12=
EXTT13=
EXTT14=
EXTT15=
EXTT16=
EXTT17=
EXTT18=
EXTT19=
PLAYORDER=
